<svg xmlns="http://www.w3.org/2000/svg" width="900" height="500" viewBox="0 0 900 500" role="img" aria-labelledby="title desc">
  <title id="title">A proof tree compared with a search tree</title>
  <desc id="desc">The proof tree contains the successful derivation, while the search tree additionally contains failed alternatives and repeated work.</desc>
  <defs>
    <style>
      .paper{fill:#fffdf7;stroke:#243447;stroke-width:2}
      .goal{fill:#e7f3ee;stroke:#2f6f55;stroke-width:2}
      .fail{fill:#f8e3e3;stroke:#8b3a3a;stroke-width:2}
      .repeat{fill:#fff0d9;stroke:#9a5b18;stroke-width:2}
      .title{fill:#8b3a3a;font:bold 21px Georgia,serif}
      .text{fill:#172334;font:12px ui-monospace,SFMono-Regular,Consolas,monospace}
      .prose{fill:#435166;font:15px Georgia,serif}
      .line{stroke:#526273;stroke-width:2}
    </style>
  </defs>
  <rect width="900" height="500" fill="#f4efe3"/>
  <rect class="paper" x="25" y="40" width="390" height="410" rx="10"/>
  <text class="title" x="220" y="78" text-anchor="middle">PROOF TREE</text>
  <text class="prose" x="220" y="103" text-anchor="middle">only the successful support for one answer</text>
  <line class="line" x1="220" y1="165" x2="125" y2="245"/>
  <line class="line" x1="220" y1="165" x2="315" y2="245"/>
  <rect class="goal" x="130" y="125" width="180" height="48" rx="8"/>
  <text class="text" x="220" y="154" text-anchor="middle">ancestor(pat,emma)</text>
  <rect class="goal" x="62" y="235" width="126" height="48" rx="8"/>
  <text class="text" x="125" y="264" text-anchor="middle">parent(pat,jan)</text>
  <rect class="goal" x="245" y="235" width="140" height="48" rx="8"/>
  <text class="text" x="315" y="264" text-anchor="middle">ancestor(jan,emma)</text>
  <line class="line" x1="315" y1="283" x2="315" y2="345"/>
  <rect class="goal" x="252" y="345" width="126" height="48" rx="8"/>
  <text class="text" x="315" y="374" text-anchor="middle">parent(jan,emma)</text>

  <rect class="paper" x="445" y="40" width="430" height="410" rx="10"/>
  <text class="title" x="660" y="78" text-anchor="middle">SEARCH TREE</text>
  <text class="prose" x="660" y="103" text-anchor="middle">successful, failed, and repeated alternatives</text>
  <rect class="goal" x="565" y="125" width="190" height="48" rx="8"/>
  <text class="text" x="660" y="154" text-anchor="middle">ancestor(pat,emma)</text>
  <line class="line" x1="660" y1="173" x2="505" y2="235"/>
  <line class="line" x1="660" y1="173" x2="610" y2="235"/>
  <line class="line" x1="660" y1="173" x2="765" y2="235"/>
  <rect class="fail" x="462" y="235" width="86" height="45" rx="8"/>
  <text class="text" x="505" y="263" text-anchor="middle">direct ✕</text>
  <rect class="goal" x="565" y="235" width="90" height="45" rx="8"/>
  <text class="text" x="610" y="263" text-anchor="middle">via jan</text>
  <rect class="repeat" x="712" y="235" width="106" height="45" rx="8"/>
  <text class="text" x="765" y="263" text-anchor="middle">via cycle ↻</text>
  <line class="line" x1="610" y1="280" x2="570" y2="345"/>
  <line class="line" x1="610" y1="280" x2="665" y2="345"/>
  <line class="line" x1="765" y1="280" x2="790" y2="345"/>
  <rect class="fail" x="520" y="345" width="100" height="45" rx="8"/>
  <text class="text" x="570" y="373" text-anchor="middle">wrong edge ✕</text>
  <rect class="goal" x="630" y="345" width="70" height="45" rx="8"/>
  <text class="text" x="665" y="373" text-anchor="middle">success</text>
  <rect class="repeat" x="738" y="345" width="104" height="45" rx="8"/>
  <text class="text" x="790" y="373" text-anchor="middle">repeated ↻</text>
</svg>
